<?xml version="1.0" encoding="iso-8859-1"?>
<!-- Uploaded to: SVG Repo, www.svgrepo.com, Generator: SVG Repo Mixer Tools -->
<svg version="1.1" id="Layer_1" xmlns="http://www.w3.org/2000/svg" xmlns:xlink="http://www.w3.org/1999/xlink" 
	 viewBox="0 0 508 508" xml:space="preserve">
<path style="fill:#73BADD;" d="M342,440c0,8.8-7.2,16-16,16H190c-8.8,0-16-7.2-16-16V64c0-8.8,7.2-16,16-16h136c8.8,0,16,7.2,16,16
	V440z"/>
<path style="fill:#E36D60;" d="M174,440c0,8.8-7.2,16-16,16H22c-8.8,0-16-7.2-16-16V64c0-8.8,7.2-16,16-16h136c8.8,0,16,7.2,16,16
	V440z"/>
<path style="fill:#61C2AB;" d="M502,440c0,8.8-7.2,16-16,16H350c-8.8,0-16-7.2-16-16V64c0-8.8,7.2-16,16-16h136c8.8,0,16,7.2,16,16
	V440z"/>
<circle style="fill:#33A5D2;" cx="256" cy="363.2" r="48"/>
<circle style="fill:#DF5C4E;" cx="88" cy="363.2" r="48"/>
<circle style="fill:#4BB19B;" cx="423.6" cy="363.2" r="48"/>
<g>
	<rect x="34" y="100" style="fill:#F4EFEF;" width="108" height="180"/>
	<rect x="198" y="100" style="fill:#F4EFEF;" width="112" height="180"/>
	<rect x="366" y="100" style="fill:#F4EFEF;" width="112" height="180"/>
</g>
<path d="M294,206h-76c-2.4,0-4-1.6-4-4s1.6-4,4-4h76c2.4,0,4,1.6,4,4S296.4,206,294,206z"/>
<path d="M294,166h-76c-2.4,0-4-1.6-4-4s1.6-4,4-4h76c2.4,0,4,1.6,4,4S296.4,166,294,166z"/>
<path d="M294,246h-76c-2.4,0-4-1.6-4-4s1.6-4,4-4h76c2.4,0,4,1.6,4,4S296.4,246,294,246z"/>
<path d="M458,206h-72c-2.4,0-4-1.6-4-4s1.6-4,4-4h72c2.4,0,4,1.6,4,4S460.4,206,458,206z"/>
<path d="M458,166h-72c-2.4,0-4-1.6-4-4s1.6-4,4-4h72c2.4,0,4,1.6,4,4S460.4,166,458,166z"/>
<path d="M458,246h-72c-2.4,0-4-1.6-4-4s1.6-4,4-4h72c2.4,0,4,1.6,4,4S460.4,246,458,246z"/>
<path d="M126,206H54c-2.4,0-4-1.6-4-4s1.6-4,4-4h72c2.4,0,4,1.6,4,4S128.4,206,126,206z"/>
<path d="M126,166H54c-2.4,0-4-1.6-4-4s1.6-4,4-4h72c2.4,0,4,1.6,4,4S128.4,166,126,166z"/>
<path d="M126,246H54c-2.4,0-4-1.6-4-4s1.6-4,4-4h72c2.4,0,4,1.6,4,4S128.4,246,126,246z"/>
<path d="M324,462H188c-11.2,0-20-8.8-20-20V66c0-11.2,8.8-20,20-20h136c11.2,0,20,8.8,20,20v376C344,453.2,335.2,462,324,462z
	 M188,54c-6.8,0-12,5.2-12,12v376c0,6.8,5.2,12,12,12h136c6.8,0,12-5.2,12-12V66c0-6.8-5.2-12-12-12H188z"/>
<path d="M156,462H20c-11.2,0-20-8.8-20-20V66c0-11.2,8.8-20,20-20h136c11.2,0,20,8.8,20,20v376C176,453.2,167.2,462,156,462z M20,54
	c-6.8,0-12,5.2-12,12v376c0,6.8,5.2,12,12,12h136c6.8,0,12-5.2,12-12V66c0-6.8-5.2-12-12-12H20z"/>
<path d="M488,462H352c-11.2,0-20-8.8-20-20V66c0-11.2,8.8-20,20-20h136c11.2,0,20,8.8,20,20v376C508,453.2,499.2,462,488,462z
	 M352,54c-6.8,0-12,5.2-12,12v376c0,6.8,5.2,12,12,12h136c6.8,0,12-5.2,12-12V66c0-6.8-5.2-12-12-12H352z"/>
<path d="M256,415.2c-28.8,0-52-23.2-52-52s23.2-52,52-52s52,23.2,52,52S284.8,415.2,256,415.2z M256,319.2c-24.4,0-44,19.6-44,44
	s19.6,44,44,44s44-19.6,44-44S280.4,319.2,256,319.2z"/>
<path d="M88,415.2c-28.8,0-52-23.2-52-52s23.2-52,52-52s52,23.2,52,52S116.8,415.2,88,415.2z M88,319.2c-24.4,0-44,19.6-44,44
	s19.6,44,44,44s44-19.6,44-44S112.4,319.2,88,319.2z"/>
<path d="M423.6,415.2c-28.8,0-52-23.2-52-52s23.2-52,52-52s52,23.2,52,52S452.4,415.2,423.6,415.2z M423.6,319.2
	c-24.4,0-44,19.6-44,44s19.6,44,44,44s44-19.6,44-44S448,319.2,423.6,319.2z"/>
<path d="M140,286H32c-2.4,0-4-1.6-4-4V102c0-2.4,1.6-4,4-4h78c2.4,0,4,1.6,4,4s-1.6,4-4,4H36v172h100V100c0-2.4,1.6-4,4-4s4,1.6,4,4
	v182C144,284.4,142.4,286,140,286z"/>
<path d="M308,286H196c-2.4,0-4-1.6-4-4V102c0-2.4,1.6-4,4-4h82c2.4,0,4,1.6,4,4s-1.6,4-4,4h-78v172h104V100c0-2.4,1.6-4,4-4
	s4,1.6,4,4v182C312,284.4,310.4,286,308,286z"/>
<path d="M476,286H364c-2.4,0-4-1.6-4-4V102c0-2.4,1.6-4,4-4h82c2.4,0,4,1.6,4,4s-1.6,4-4,4h-78v172h104V100c0-2.4,1.6-4,4-4
	s4,1.6,4,4v182C480,284.4,478.4,286,476,286z"/>
</svg>